<?xml version="1.0" standalone="no"?>
<!DOCTYPE svg PUBLIC "-//W3C//DTD SVG 20010904//EN"
 "http://www.w3.org/TR/2001/REC-SVG-20010904/DTD/svg10.dtd">
<svg version="1.0" xmlns="http://www.w3.org/2000/svg"
 width="600.000000pt" height="104.000000pt" viewBox="0 0 600.000000 104.000000"
 preserveAspectRatio="xMidYMid meet">
<g transform="translate(0.000000,104.000000) scale(0.100000,-0.100000)"
fill="#000000" stroke="none">
<path d="M1970 765 c0 -195 0 -195 85 -195 85 0 85 0 85 47 0 27 -19 114 -42
195 -43 148 -43 148 -85 148 -43 0 -43 0 -43 -195z m66 78 c33 -81 45 -125 47
-174 2 -52 1 -54 -25 -57 -22 -3 -30 2 -37 20 -10 26 -11 238 -2 238 3 0 11
-12 17 -27z"/>
<path d="M2914 935 c-13 -32 3 -46 46 -39 40 7 40 7 40 -55 0 -55 2 -62 18
-57 19 6 189 36 203 36 5 0 9 15 9 34 0 19 5 38 10 41 6 3 10 17 10 31 0 24 0
24 -165 24 -138 0 -167 -3 -171 -15z m254 -43 c9 -2 10 -7 2 -21 -6 -12 -17
-17 -29 -14 -10 3 -22 -1 -26 -8 -6 -8 -4 -10 6 -4 8 5 11 4 6 0 -4 -5 -15
-10 -25 -11 -9 -2 -26 -4 -36 -6 -12 -2 -25 7 -36 27 -16 29 -16 30 4 36 18 5
98 5 134 1z"/>
<path d="M3275 767 c-4 -34 -5 -174 -3 -310 3 -244 3 -248 -17 -243 -11 3 -45
9 -75 12 -70 7 -164 29 -260 59 -41 13 -127 36 -190 51 -63 14 -119 31 -124
35 -6 5 55 9 142 9 149 0 153 1 244 35 79 30 106 35 176 35 83 0 83 0 80 51
-3 51 -3 51 -273 52 -270 2 -270 2 -273 -44 -3 -45 -4 -46 -69 -85 -65 -39
-68 -40 -107 -27 -115 36 -347 65 -360 45 -3 -6 16 -13 46 -17 191 -23 366
-64 559 -130 296 -100 452 -125 797 -125 531 0 1675 125 2112 231 325 78 307
129 -75 214 -182 41 -614 105 -920 135 -606 62 -753 72 -1087 75 -317 3 -317
3 -323 -58z m640 29 c55 -4 150 -11 210 -16 61 -5 144 -12 185 -15 41 -3 107
-10 145 -16 39 -5 102 -11 140 -14 39 -2 102 -9 140 -14 39 -6 99 -13 135 -16
36 -3 88 -10 115 -15 28 -5 77 -12 110 -15 127 -13 420 -59 485 -76 19 -5 67
-16 105 -25 39 -9 82 -23 97 -30 15 -8 35 -14 46 -14 28 0 21 -41 -9 -54 -13
-6 -27 -15 -30 -20 -4 -4 -12 -5 -18 -2 -6 4 -11 2 -11 -5 0 -7 -10 -9 -25 -7
-14 3 -25 2 -25 -2 0 -4 -21 -11 -47 -15 -27 -4 -91 -15 -144 -25 -52 -11
-122 -22 -154 -25 -33 -4 -66 -10 -75 -14 -8 -5 -42 -11 -75 -15 -160 -18
-312 -36 -330 -40 -11 -2 -51 -7 -90 -11 -38 -4 -81 -8 -95 -10 -14 -2 -61 -6
-105 -10 -44 -3 -134 -13 -200 -21 -66 -8 -149 -16 -185 -18 -36 -3 -175 -12
-310 -21 -151 -10 -314 -15 -425 -12 -180 5 -180 5 -188 68 -8 65 -2 512 7
527 6 10 473 8 621 -2z m-723 -294 c9 -9 -1 -12 -40 -12 -50 0 -180 -38 -207
-60 -14 -12 -77 -20 -178 -23 -66 -2 -67 -2 -67 24 0 44 41 71 117 80 100 11
362 4 375 -9z"/>
<path d="M2900 745 c-25 -7 -79 -25 -120 -40 -117 -43 -353 -101 -492 -121
-70 -10 -125 -21 -122 -26 19 -31 333 33 614 124 102 33 192 64 200 69 23 13
-26 10 -80 -6z"/>
<path d="M1804 549 c-19 -21 -19 -21 13 -15 27 6 32 4 39 -16 7 -22 7 -22 14
-3 4 11 19 22 35 25 52 9 38 27 -23 29 -49 2 -61 -2 -78 -20z"/>
<path d="M85 511 c-7 -12 12 -24 25 -16 6 3 10 1 10 -4 0 -7 24 -11 60 -11 53
0 60 2 60 20 0 18 -7 20 -74 20 -41 0 -77 -4 -81 -9z"/>
<path d="M257 500 c4 -15 14 -20 39 -20 27 0 34 4 34 20 0 17 -7 20 -39 20
-34 0 -38 -3 -34 -20z"/>
<path d="M340 500 c0 -17 7 -20 40 -20 33 0 40 3 40 20 0 17 -7 20 -40 20 -33
0 -40 -3 -40 -20z"/>
<path d="M430 500 c0 -20 7 -20 675 -20 668 0 675 0 675 20 0 20 -7 20 -675
20 -668 0 -675 0 -675 -20z"/>
<path d="M1790 469 c0 -3 8 -13 18 -22 19 -18 85 -21 132 -8 24 7 23 8 -14 19
-22 6 -43 9 -48 6 -4 -3 -8 -2 -8 3 0 4 -18 8 -40 8 -22 0 -40 -3 -40 -6z"/>
<path d="M1970 235 c0 -195 0 -195 45 -195 31 0 45 4 45 13 0 8 18 74 40 147
23 76 40 154 40 182 0 48 0 48 -85 48 -85 0 -85 0 -85 -195z m113 105 c-2 -81
-43 -200 -68 -200 -10 0 -2 222 9 238 4 7 20 12 34 10 25 -3 27 -6 25 -48z"/>
</g>
</svg>
